<mxfile host="app.diagrams.net" modified="2023-07-01T13:38:05.498Z" agent="Mozilla/5.0 (Windows NT 10.0; Win64; x64) AppleWebKit/537.36 (KHTML, like Gecko) Chrome/114.0.0.0 Safari/537.36" etag="sNS2fWi4wj2ifHewxfQW" version="21.5.2" type="device">
  <diagram name="Страница 1" id="Eg4yA6sfOypKKkipRrpi">
    <mxGraphModel dx="1434" dy="796" grid="1" gridSize="10" guides="1" tooltips="1" connect="1" arrows="1" fold="1" page="1" pageScale="1" pageWidth="827" pageHeight="1169" math="0" shadow="0">
      <root>
        <mxCell id="0" />
        <mxCell id="1" parent="0" />
        <mxCell id="1E2D1LLNhUWie6UeaVXB-17" style="edgeStyle=orthogonalEdgeStyle;rounded=0;orthogonalLoop=1;jettySize=auto;html=1;entryX=0.5;entryY=0;entryDx=0;entryDy=0;" parent="1" source="1E2D1LLNhUWie6UeaVXB-3" target="1E2D1LLNhUWie6UeaVXB-4" edge="1">
          <mxGeometry relative="1" as="geometry" />
        </mxCell>
        <mxCell id="1E2D1LLNhUWie6UeaVXB-3" value="start" style="ellipse;whiteSpace=wrap;html=1;" parent="1" vertex="1">
          <mxGeometry x="270" y="10" width="250" height="80" as="geometry" />
        </mxCell>
        <mxCell id="1E2D1LLNhUWie6UeaVXB-18" style="edgeStyle=orthogonalEdgeStyle;rounded=0;orthogonalLoop=1;jettySize=auto;html=1;entryX=0.5;entryY=0;entryDx=0;entryDy=0;" parent="1" source="1E2D1LLNhUWie6UeaVXB-4" edge="1">
          <mxGeometry relative="1" as="geometry">
            <mxPoint x="395" y="240" as="targetPoint" />
          </mxGeometry>
        </mxCell>
        <mxCell id="1E2D1LLNhUWie6UeaVXB-4" value="string[]array&amp;nbsp;&lt;br&gt;string[]array1&lt;br&gt;size=array.length&lt;br&gt;count=0" style="rounded=0;whiteSpace=wrap;html=1;" parent="1" vertex="1">
          <mxGeometry x="240" y="140" width="310" height="60" as="geometry" />
        </mxCell>
        <mxCell id="1E2D1LLNhUWie6UeaVXB-20" style="edgeStyle=orthogonalEdgeStyle;rounded=0;orthogonalLoop=1;jettySize=auto;html=1;entryX=0.451;entryY=0.05;entryDx=0;entryDy=0;entryPerimeter=0;" parent="1" source="1E2D1LLNhUWie6UeaVXB-6" target="1E2D1LLNhUWie6UeaVXB-7" edge="1">
          <mxGeometry relative="1" as="geometry" />
        </mxCell>
        <mxCell id="1E2D1LLNhUWie6UeaVXB-26" style="edgeStyle=orthogonalEdgeStyle;rounded=0;orthogonalLoop=1;jettySize=auto;html=1;entryX=0.017;entryY=0.375;entryDx=0;entryDy=0;entryPerimeter=0;" parent="1" source="1E2D1LLNhUWie6UeaVXB-6" target="1E2D1LLNhUWie6UeaVXB-25" edge="1">
          <mxGeometry relative="1" as="geometry" />
        </mxCell>
        <mxCell id="1E2D1LLNhUWie6UeaVXB-6" value="&amp;nbsp;for i&amp;lt;size, i=0, i+1" style="rhombus;whiteSpace=wrap;html=1;" parent="1" vertex="1">
          <mxGeometry x="240" y="240" width="310" height="80" as="geometry" />
        </mxCell>
        <mxCell id="1E2D1LLNhUWie6UeaVXB-9" style="edgeStyle=orthogonalEdgeStyle;rounded=0;orthogonalLoop=1;jettySize=auto;html=1;entryX=0.558;entryY=-0.017;entryDx=0;entryDy=0;entryPerimeter=0;" parent="1" source="1E2D1LLNhUWie6UeaVXB-7" target="1E2D1LLNhUWie6UeaVXB-8" edge="1">
          <mxGeometry relative="1" as="geometry" />
        </mxCell>
        <mxCell id="pFfVtHcODTQhtanhjgPv-5" style="edgeStyle=orthogonalEdgeStyle;rounded=0;orthogonalLoop=1;jettySize=auto;html=1;entryX=0.571;entryY=0.963;entryDx=0;entryDy=0;entryPerimeter=0;" edge="1" parent="1" source="1E2D1LLNhUWie6UeaVXB-7" target="1E2D1LLNhUWie6UeaVXB-6">
          <mxGeometry relative="1" as="geometry">
            <Array as="points">
              <mxPoint x="395" y="468" />
              <mxPoint x="590" y="468" />
              <mxPoint x="590" y="427" />
            </Array>
          </mxGeometry>
        </mxCell>
        <mxCell id="1E2D1LLNhUWie6UeaVXB-7" value="array[i] size&amp;lt;=3" style="rhombus;whiteSpace=wrap;html=1;" parent="1" vertex="1">
          <mxGeometry x="220" y="505" width="350" height="80" as="geometry" />
        </mxCell>
        <mxCell id="1E2D1LLNhUWie6UeaVXB-11" style="edgeStyle=orthogonalEdgeStyle;rounded=0;orthogonalLoop=1;jettySize=auto;html=1;entryX=0;entryY=0.5;entryDx=0;entryDy=0;" parent="1" source="1E2D1LLNhUWie6UeaVXB-8" target="1E2D1LLNhUWie6UeaVXB-6" edge="1">
          <mxGeometry relative="1" as="geometry">
            <Array as="points">
              <mxPoint x="10" y="580" />
              <mxPoint x="10" y="400" />
            </Array>
          </mxGeometry>
        </mxCell>
        <mxCell id="1E2D1LLNhUWie6UeaVXB-8" value="array1[count]=array[i]&lt;br&gt;count=count+1" style="rounded=0;whiteSpace=wrap;html=1;" parent="1" vertex="1">
          <mxGeometry x="50" y="550" width="120" height="60" as="geometry" />
        </mxCell>
        <mxCell id="1E2D1LLNhUWie6UeaVXB-10" value="yes" style="text;html=1;strokeColor=none;fillColor=none;align=center;verticalAlign=middle;whiteSpace=wrap;rounded=0;" parent="1" vertex="1">
          <mxGeometry x="170" y="490" width="60" height="30" as="geometry" />
        </mxCell>
        <mxCell id="1E2D1LLNhUWie6UeaVXB-21" value="yes" style="text;html=1;strokeColor=none;fillColor=none;align=center;verticalAlign=middle;whiteSpace=wrap;rounded=0;" parent="1" vertex="1">
          <mxGeometry x="330" y="450" width="60" height="30" as="geometry" />
        </mxCell>
        <mxCell id="pFfVtHcODTQhtanhjgPv-9" style="edgeStyle=orthogonalEdgeStyle;rounded=0;orthogonalLoop=1;jettySize=auto;html=1;entryX=1;entryY=0.5;entryDx=0;entryDy=0;exitX=0.5;exitY=0.875;exitDx=0;exitDy=0;exitPerimeter=0;" edge="1" parent="1" source="1E2D1LLNhUWie6UeaVXB-25" target="pFfVtHcODTQhtanhjgPv-7">
          <mxGeometry relative="1" as="geometry" />
        </mxCell>
        <mxCell id="1E2D1LLNhUWie6UeaVXB-25" value="print array1" style="shape=document;whiteSpace=wrap;html=1;boundedLbl=1;" parent="1" vertex="1">
          <mxGeometry x="600" y="360" width="120" height="80" as="geometry" />
        </mxCell>
        <mxCell id="pFfVtHcODTQhtanhjgPv-6" value="no" style="text;html=1;strokeColor=none;fillColor=none;align=center;verticalAlign=middle;whiteSpace=wrap;rounded=0;" vertex="1" parent="1">
          <mxGeometry x="390" y="460" width="60" height="30" as="geometry" />
        </mxCell>
        <mxCell id="pFfVtHcODTQhtanhjgPv-7" value="end" style="ellipse;whiteSpace=wrap;html=1;" vertex="1" parent="1">
          <mxGeometry x="610" y="480" width="120" height="40" as="geometry" />
        </mxCell>
      </root>
    </mxGraphModel>
  </diagram>
</mxfile>
